<svg id="Слой_1" data-name="Слой 1" xmlns="http://www.w3.org/2000/svg" xmlns:xlink="http://www.w3.org/1999/xlink" viewBox="0 0 256 256"><defs><style>.cls-1{fill:none;}.cls-2{isolation:isolate;}.cls-3{clip-path:url(#clip-path);}.cls-4{fill:#282828;}.cls-5{fill:#343434;}.cls-6{fill:#414141;}.cls-7{fill:#272727;}.cls-8{fill:#3b3b3b;}.cls-9{fill:#848484;}.cls-10{fill:#dbdbdb;}.cls-11{fill:#c5c5c5;}.cls-12{fill:#723a88;}.cls-13{fill:#b75ddb;}.cls-14{fill:#a554c5;}.cls-15{fill:#458c8d;}.cls-16{fill:#6bdadb;}.cls-17{fill:#60c4c5;}.cls-18{clip-path:url(#clip-path-2);}.cls-19{fill:#2c2c2c;}.cls-20{clip-path:url(#clip-path-3);}.cls-21{fill:#85497d;}.cls-22{clip-path:url(#clip-path-4);}.cls-23{fill:#8a4c82;}.cls-24{clip-path:url(#clip-path-5);}.cls-25{fill:#9e5795;}.cls-26{fill:#a35a9a;}.cls-27{fill:#a85d9f;}.cls-28{fill:#ad60a4;}.cls-29{fill:#b363a9;}.cls-30{fill:#b866ae;}.cls-31{fill:#bd68b2;}.cls-32{fill:#c26bb7;}.cls-33{fill:#c76ebc;}.cls-34{fill:#cc71c1;}.cls-35{fill:#995591;}.cls-36{fill:#94528c;}.cls-37{fill:#8f4f87;}.cls-38{clip-path:url(#clip-path-6);}.cls-39{clip-path:url(#clip-path-7);}.cls-40{clip-path:url(#clip-path-8);}.cls-41{clip-path:url(#clip-path-9);}.cls-42{clip-path:url(#clip-path-10);}.cls-43{clip-path:url(#clip-path-11);}.cls-44{clip-path:url(#clip-path-12);}.cls-45{clip-path:url(#clip-path-13);}.cls-46{clip-path:url(#clip-path-14);}.cls-47{clip-path:url(#clip-path-15);}.cls-48{clip-path:url(#clip-path-16);}.cls-49{clip-path:url(#clip-path-17);}.cls-50{fill:#db79cf;}.cls-51{clip-path:url(#clip-path-18);}.cls-52{clip-path:url(#clip-path-19);}.cls-53{fill:#93518b;}.cls-54{clip-path:url(#clip-path-20);}.cls-55{clip-path:url(#clip-path-21);}.cls-56{clip-path:url(#clip-path-22);}.cls-57{clip-path:url(#clip-path-23);}.cls-58{clip-path:url(#clip-path-24);}.cls-59{fill:#c56dba;}.cls-60{clip-path:url(#clip-path-25);}</style><clipPath id="clip-path"><path class="cls-1" d="M53.84,244.17l-3.52-2c-3.78-2.2-5.31-8-5.43-8.42l3.53,2C48.53,236.2,50.06,242,53.84,244.17Z"/></clipPath><clipPath id="clip-path-2"><path class="cls-1" d="M54.57,245.24,51,243.19c-3.07-1.78-2.91-7.79-2.9-8.24L51.66,237C51.65,237.45,51.5,243.45,54.57,245.24Z"/></clipPath><clipPath id="clip-path-3"><path class="cls-1" d="M167.76,142.58l-2.11-1.23a30.2,30.2,0,0,1-7.15-5.55l2.12,1.23A30.3,30.3,0,0,0,167.76,142.58Z"/></clipPath><clipPath id="clip-path-4"><path class="cls-1" d="M170.52,102.62l2.12,1.23c.47.27.7,1,.56,2l-2.11-1.23C171.23,103.58,171,102.89,170.52,102.62Z"/></clipPath><clipPath id="clip-path-5"><path class="cls-1" d="M168.56,110.75l-2.11-1.23a1.57,1.57,0,0,0,1.58-.19,7.3,7.3,0,0,0,3.06-4.76l2.11,1.23a7.33,7.33,0,0,1-3,4.76A1.59,1.59,0,0,1,168.56,110.75Z"/></clipPath><clipPath id="clip-path-6"><path class="cls-1" d="M164.41,112.14l2.11,1.23c.48.28.71,1,.57,1.95L165,114.09C165.11,113.1,164.88,112.42,164.41,112.14Z"/></clipPath><clipPath id="clip-path-7"><path class="cls-1" d="M162.45,120.28l-2.12-1.23a1.59,1.59,0,0,0,1.59-.2,7.26,7.26,0,0,0,3.06-4.76l2.11,1.23a7.28,7.28,0,0,1-3.06,4.76A1.58,1.58,0,0,1,162.45,120.28Z"/></clipPath><clipPath id="clip-path-8"><path class="cls-1" d="M153.47,130.56l2.11,1.23c1.23.71,1.83,2.48,1.47,5.05l-2.11-1.23C155.29,133.05,154.7,131.27,153.47,130.56Z"/></clipPath><clipPath id="clip-path-9"><path class="cls-1" d="M145,149.69l-2.11-1.23c1,.58,2.43.46,4.11-.51,3.73-2.15,7.27-7.67,7.92-12.34l2.11,1.23c-.64,4.67-4.19,10.19-7.92,12.34C147.46,150.15,146,150.27,145,149.69Z"/></clipPath><clipPath id="clip-path-10"><path class="cls-1" d="M164.24,107.38l-2.12-1.23a1.59,1.59,0,0,0,1.59-.19,7.33,7.33,0,0,0,3-4.77c.14-1-.09-1.67-.56-2l2.11,1.23c.47.28.7,1,.57,2a7.26,7.26,0,0,1-3.06,4.76A1.58,1.58,0,0,1,164.24,107.38Z"/></clipPath><clipPath id="clip-path-11"><path class="cls-1" d="M159.89,108.76,162,110c.48.28.71,1,.57,2a7.33,7.33,0,0,1-3,4.77l-2.12-1.23a7.3,7.3,0,0,0,3.06-4.77C160.59,109.72,160.36,109,159.89,108.76Z"/></clipPath><clipPath id="clip-path-12"><path class="cls-1" d="M157.93,116.89l-2.12-1.23a1.59,1.59,0,0,0,1.59-.19l2.12,1.23A1.59,1.59,0,0,1,157.93,116.89Z"/></clipPath><clipPath id="clip-path-13"><path class="cls-1" d="M142.4,152.24,140.29,151c-1.72-1-2.68-3.26-2.56-6.5l2.11,1.22C139.73,149,140.69,151.24,142.4,152.24Z"/></clipPath><clipPath id="clip-path-14"><path class="cls-1" d="M131.24,143.39l2.12,1.22c1.23.72,1.82,2.49,1.47,5.06l-2.12-1.23C133.07,145.87,132.47,144.1,131.24,143.39Z"/></clipPath><clipPath id="clip-path-15"><path class="cls-1" d="M122.8,162.52l-2.11-1.23c1,.58,2.43.46,4.11-.51,3.73-2.15,7.27-7.67,7.91-12.34l2.12,1.23c-.65,4.67-4.19,10.19-7.92,12.34C125.24,163,123.81,163.1,122.8,162.52Z"/></clipPath><clipPath id="clip-path-16"><path class="cls-1" d="M170.92,84.7,173,85.93a6.43,6.43,0,0,0-3.62-1,6.72,6.72,0,0,0-2.89,1c-5.75,3.31-11.84,13.16-12.16,13.68l-2.11-1.23c.32-.52,6.41-10.36,12.15-13.68a6.76,6.76,0,0,1,2.89-1A6.41,6.41,0,0,1,170.92,84.7Z"/></clipPath><clipPath id="clip-path-17"><path class="cls-1" d="M119.73,165.33l-2.12-1.23a5.15,5.15,0,0,1-2.28-3.41l2.11,1.23A5.2,5.2,0,0,0,119.73,165.33Z"/></clipPath><clipPath id="clip-path-18"><path class="cls-1" d="M125.29,137.62l-2.11-1.23a3.81,3.81,0,0,0,1.59-2.48l2.11,1.23A3.78,3.78,0,0,1,125.29,137.62Z"/></clipPath><clipPath id="clip-path-19"><path class="cls-1" d="M120.49,145.1l-2.11-1.23a3.81,3.81,0,0,0,1.59-2.48l2.11,1.23A3.78,3.78,0,0,1,120.49,145.1Z"/></clipPath><clipPath id="clip-path-20"><path class="cls-1" d="M125.25,127.24l2.12,1.23c.25.15.37.5.3,1l-2.12-1.22C125.62,127.74,125.5,127.39,125.25,127.24Z"/></clipPath><clipPath id="clip-path-21"><path class="cls-1" d="M115.15,147.81,113,146.58a.84.84,0,0,0,.83-.1l2.11,1.23A.82.82,0,0,1,115.15,147.81Z"/></clipPath><clipPath id="clip-path-22"><path class="cls-1" d="M121.87,124.49l2.11,1.23c.25.14.37.5.3,1l-2.11-1.23C122.24,125,122.12,124.63,121.87,124.49Z"/></clipPath><clipPath id="clip-path-23"><path class="cls-1" d="M111.76,145.05l-2.11-1.23a.8.8,0,0,0,.82-.1l2.12,1.23A.81.81,0,0,1,111.76,145.05Z"/></clipPath><clipPath id="clip-path-24"><path class="cls-1" d="M132.33,108.15l2.12,1.23a8.38,8.38,0,0,0-8.79.17l-2.11-1.23A8.38,8.38,0,0,1,132.33,108.15Z"/></clipPath><clipPath id="clip-path-25"><path class="cls-1" d="M96.84,186l-2.12-1.23a3.07,3.07,0,0,1-.67-.53c-1.55-1.56-2-1.64,2-21.92,2.58-13.15,9.07-27.83,15.27-38.53,3.37-5.82,6.65-10.46,9.18-13a14.38,14.38,0,0,1,3.09-2.46l2.11,1.23a14.31,14.31,0,0,0-3.09,2.46c-2.52,2.57-5.81,7.21-9.18,13-6.2,10.7-12.69,25.39-15.27,38.54-4,20.28-3.5,20.36-2,21.92A3.46,3.46,0,0,0,96.84,186Z"/></clipPath></defs><title>Games_dk</title><g class="cls-2"><g class="cls-2"><g class="cls-3"><g class="cls-2"><path class="cls-4" d="M53.84,244.17l-3.52-2c-3.78-2.2-5.31-8-5.43-8.42l3.53,2c.11.45,1.64,6.23,5.42,8.42"/></g></g></g><polygon class="cls-5" points="147.96 48.8 144.44 46.75 154.02 24.76 157.55 26.81 147.96 48.8"/><polygon class="cls-6" points="157.55 26.81 154.02 24.76 185.98 6.31 189.5 8.36 157.55 26.81"/><polygon class="cls-6" points="112.89 69.05 109.37 67 144.44 46.75 147.96 48.8 112.89 69.05"/><polygon class="cls-6" points="110.55 70.4 107.03 68.35 109.37 67 112.89 69.05 110.55 70.4"/><polygon class="cls-6" points="31.83 115.85 28.31 113.8 107.03 68.35 110.55 70.4 31.83 115.85"/><polygon class="cls-7" points="48.42 235.75 44.89 233.71 28.31 113.8 31.83 115.85 48.42 235.75"/><path class="cls-8" d="M189.5,8.36l2.11,15.24,2.49,18,14.09,101.89c0,.75.41,15.12-8.94,20.52l-67.81,39.15-2.33,1.35L61.29,243.68c-9.35,5.4-12.7-7.26-12.87-7.93L31.83,115.85,110.55,70.4l2.34-1.35L148,48.8l9.59-22Z"/></g><g class="cls-2"><polygon class="cls-9" points="53.22 205.31 51.81 204.49 44.32 113.69 45.73 114.51 53.22 205.31"/><polygon class="cls-10" points="45.73 114.51 44.32 113.69 201.57 22.91 202.98 23.72 45.73 114.51"/><polygon class="cls-11" points="202.98 23.72 210.48 114.52 53.22 205.31 45.73 114.51 202.98 23.72"/></g><g class="cls-2"><polygon class="cls-12" points="54.46 207.4 53.05 206.58 52.78 111.61 54.19 112.43 54.46 207.4"/><polygon class="cls-13" points="54.19 112.43 52.78 111.61 210.04 20.81 211.45 21.63 54.19 112.43"/><polygon class="cls-14" points="211.45 21.63 211.72 116.6 54.46 207.4 54.19 112.43 211.45 21.63"/></g><g class="cls-2"><polygon class="cls-15" points="55.7 209.49 54.29 208.67 61.25 109.52 62.66 110.34 55.7 209.49"/><polygon class="cls-16" points="62.66 110.34 61.25 109.52 218.51 18.73 219.92 19.55 62.66 110.34"/><polygon class="cls-17" points="219.92 19.55 212.96 118.69 55.7 209.49 62.66 110.34 219.92 19.55"/></g><g class="cls-2"><polygon class="cls-6" points="148.64 75.16 145.12 73.11 223.83 27.66 227.36 29.71 148.64 75.16"/><polygon class="cls-6" points="146.31 76.51 142.78 74.46 145.12 73.11 148.64 75.16 146.31 76.51"/><g class="cls-2"><g class="cls-18"><g class="cls-2"><path class="cls-4" d="M54.57,245.24,51,243.19c-3.07-1.78-2.91-7.79-2.9-8.24L51.66,237c0,.45-.16,6.45,2.91,8.24"/></g></g></g><polygon class="cls-6" points="111.23 96.76 107.7 94.71 142.78 74.46 146.31 76.51 111.23 96.76"/><polygon class="cls-19" points="51.66 237 48.14 234.95 61.66 137.2 65.19 139.25 51.66 237"/><polygon class="cls-19" points="65.19 139.25 61.66 137.2 64.06 119.91 67.58 121.96 65.19 139.25"/><polygon class="cls-19" points="67.58 121.96 64.06 119.91 66.08 105.28 69.61 107.33 67.58 121.96"/><path class="cls-8" d="M148.64,75.16l78.72-45.45-15.92,115c-.17.73-3.44,14.55-12.8,19.95l-67.81,39.15-2.34,1.35-67.8,39.15c-9.35,5.4-9-6.71-9-7.35l13.53-97.75L67.58,122l2-14.63,32-18.45,9.67,7.88L146.3,76.51Z"/><polygon class="cls-6" points="69.61 107.33 66.08 105.28 98.04 86.84 101.56 88.88 69.61 107.33"/></g><g class="cls-2"><g class="cls-2"><g class="cls-20"><g class="cls-2"><path class="cls-21" d="M167.76,142.58l-2.11-1.23a30.2,30.2,0,0,1-7.15-5.55l2.12,1.23a30.3,30.3,0,0,0,7.14,5.55"/></g></g></g><g class="cls-2"><g class="cls-22"><g class="cls-2"><path class="cls-23" d="M173.2,105.8l-2.11-1.23v0l2.11,1.23v0"/><path class="cls-21" d="M173.21,105.75l-2.11-1.23c.12-1-.11-1.63-.58-1.9l2.12,1.23c.46.27.69.93.57,1.9"/></g></g></g><g class="cls-2"><g class="cls-24"><g class="cls-2"><polyline class="cls-25" points="168.56 110.75 166.45 109.52 166.46 109.53 168.57 110.76 168.56 110.75"/><path class="cls-26" d="M168.57,110.76l-2.11-1.23.1,0,2.11,1.23-.1,0"/><path class="cls-27" d="M168.67,110.81l-2.11-1.23.11,0,2.11,1.23-.11,0"/><path class="cls-28" d="M168.78,110.85l-2.11-1.23.11,0,2.12,1.23-.12,0"/><path class="cls-29" d="M168.9,110.87l-2.12-1.23.13,0,2.11,1.23-.12,0"/><path class="cls-30" d="M169,110.89l-2.11-1.23H167l2.12,1.23H169"/><path class="cls-31" d="M169.16,110.89,167,109.66l.17,0,2.11,1.23-.16,0"/><path class="cls-32" d="M169.32,110.87l-2.11-1.23.19,0,2.12,1.23-.2,0"/><path class="cls-33" d="M169.52,110.83l-2.12-1.23a1.57,1.57,0,0,0,.28-.1l2.12,1.23-.28.1"/><path class="cls-34" d="M169.8,110.73l-2.12-1.23a1.87,1.87,0,0,0,.35-.17,4.61,4.61,0,0,0,.95-.74l2.11,1.23a4.84,4.84,0,0,1-.94.74,2.23,2.23,0,0,1-.35.17"/><path class="cls-33" d="M171.09,109.82,169,108.59l.35-.37,2.11,1.23c-.11.13-.23.25-.35.37"/><path class="cls-32" d="M171.44,109.45l-2.11-1.23a4,4,0,0,0,.26-.32l2.12,1.23-.27.32"/><path class="cls-31" d="M171.71,109.13l-2.12-1.23.23-.31,2.11,1.23c-.07.11-.15.21-.22.31"/><path class="cls-30" d="M171.93,108.82l-2.11-1.23.19-.29,2.12,1.23c-.07.1-.13.2-.2.29"/><path class="cls-29" d="M172.13,108.53,170,107.3l.18-.29,2.11,1.23c-.05.1-.11.19-.17.29"/><path class="cls-28" d="M172.3,108.24,170.19,107l.16-.28,2.11,1.23c-.05.09-.1.19-.16.28"/><path class="cls-27" d="M172.46,108l-2.11-1.23c.05-.1.1-.19.14-.29l2.12,1.23-.15.29"/><path class="cls-26" d="M172.61,107.67l-2.12-1.23c0-.09.09-.19.13-.28l2.12,1.22c0,.1-.09.2-.13.29"/><path class="cls-25" d="M172.74,107.38l-2.12-1.22.12-.29,2.12,1.23-.12.28"/><path class="cls-35" d="M172.86,107.1l-2.12-1.23.11-.3L173,106.8c0,.1-.07.2-.1.3"/><path class="cls-36" d="M173,106.8l-2.11-1.23.09-.31,2.12,1.23c0,.1-.06.2-.1.31"/><path class="cls-37" d="M173.06,106.49l-2.12-1.23.09-.34,2.11,1.23c0,.11,0,.22-.08.34"/><path class="cls-23" d="M173.14,106.15,171,104.92l.06-.35,2.11,1.23a2.33,2.33,0,0,1-.06.35"/></g></g></g><g class="cls-2"><g class="cls-38"><g class="cls-2"><path class="cls-23" d="M167.09,115.32,165,114.09v0l2.12,1.23v0"/><path class="cls-21" d="M167.1,115.27,165,114c.13-1-.1-1.62-.57-1.9l2.11,1.23c.47.27.7.94.58,1.9"/></g></g></g><g class="cls-2"><g class="cls-39"><g class="cls-2"><polyline class="cls-25" points="162.45 120.28 160.34 119.05 160.35 119.06 162.46 120.28 162.45 120.28"/><path class="cls-26" d="M162.46,120.28l-2.11-1.23a.31.31,0,0,0,.1,0l2.11,1.23-.1,0"/><path class="cls-27" d="M162.56,120.33l-2.11-1.23.1,0,2.12,1.23-.11,0"/><path class="cls-28" d="M162.67,120.37l-2.12-1.23.12,0,2.11,1.23-.11,0"/><path class="cls-29" d="M162.78,120.4l-2.11-1.23h.12l2.12,1.23h-.13"/><path class="cls-30" d="M162.91,120.41l-2.12-1.23h.14l2.12,1.23h-.14"/><path class="cls-31" d="M163.05,120.41l-2.12-1.23h.16l2.12,1.23h-.16"/><path class="cls-32" d="M163.21,120.4l-2.12-1.23.2,0,2.12,1.22-.2.05"/><path class="cls-33" d="M163.41,120.35l-2.12-1.22.28-.1,2.12,1.23-.28.09"/><path class="cls-34" d="M163.69,120.26,161.57,119l.35-.18a4.74,4.74,0,0,0,1-.73l2.11,1.22a4.29,4.29,0,0,1-.95.74l-.34.18"/><path class="cls-33" d="M165,119.34l-2.11-1.22c.12-.12.23-.25.35-.38l2.11,1.23a4.12,4.12,0,0,1-.35.37"/><path class="cls-32" d="M165.33,119l-2.11-1.23c.09-.1.17-.21.26-.32l2.11,1.23a4,4,0,0,1-.26.32"/><path class="cls-31" d="M165.59,118.65l-2.11-1.23.22-.3,2.12,1.23-.23.3"/><path class="cls-30" d="M165.82,118.35l-2.12-1.23c.07-.1.14-.2.2-.3l2.12,1.23-.2.3"/><path class="cls-29" d="M166,118.05l-2.12-1.23.18-.28,2.11,1.23-.17.28"/><path class="cls-28" d="M166.19,117.77l-2.11-1.23.16-.29,2.11,1.23-.16.29"/><path class="cls-27" d="M166.35,117.48l-2.11-1.23.14-.28,2.11,1.23c0,.09-.09.19-.14.28"/><path class="cls-26" d="M166.49,117.2,164.38,116c.05-.1.09-.19.13-.29l2.11,1.23c0,.1-.08.19-.13.29"/><path class="cls-25" d="M166.62,116.91l-2.11-1.23.12-.29,2.11,1.23a1.78,1.78,0,0,1-.12.29"/><path class="cls-35" d="M166.74,116.62l-2.11-1.23.11-.3,2.11,1.23c0,.1-.07.2-.11.3"/><path class="cls-36" d="M166.85,116.32l-2.11-1.23.09-.31L167,116c0,.11-.07.21-.1.31"/><path class="cls-37" d="M167,116l-2.12-1.23a3.38,3.38,0,0,0,.08-.34l2.12,1.23c0,.12-.05.23-.08.34"/><path class="cls-23" d="M167,115.67l-2.12-1.23c0-.11.05-.23.07-.35l2.11,1.23-.06.35"/></g></g></g><g class="cls-2"><g class="cls-40"><g class="cls-2"><path class="cls-23" d="M157.05,136.84l-2.11-1.23v-.11l2.12,1.23,0,.11"/><path class="cls-21" d="M157.07,136.73,155,135.5c.33-2.51-.27-4.24-1.48-4.94l2.11,1.23c1.21.7,1.81,2.43,1.49,4.94"/></g></g></g><g class="cls-2"><g class="cls-41"><g class="cls-2"><path class="cls-25" d="M145,149.69l-2.11-1.23h0l2.11,1.23h0"/><path class="cls-26" d="M145.05,149.7l-2.11-1.23a2.1,2.1,0,0,0,.26.13l2.11,1.23a2.1,2.1,0,0,1-.26-.13"/><path class="cls-27" d="M145.31,149.83l-2.11-1.23.27.1,2.12,1.23-.28-.1"/><path class="cls-28" d="M145.59,149.93l-2.12-1.23.3.07,2.11,1.23-.29-.07"/><path class="cls-29" d="M145.88,150l-2.11-1.23.32,0,2.12,1.22-.33,0"/><path class="cls-30" d="M146.21,150l-2.12-1.22h.36l2.12,1.23h-.36"/><path class="cls-31" d="M146.57,150l-2.12-1.23.42,0L147,150l-.42,0"/><path class="cls-32" d="M147,150l-2.12-1.23.51-.11,2.12,1.23L147,150"/><path class="cls-33" d="M147.5,149.89l-2.12-1.23c.24-.07.48-.15.73-.25l2.12,1.22a6.46,6.46,0,0,1-.73.26"/><path class="cls-34" d="M148.23,149.63l-2.12-1.22A9.73,9.73,0,0,0,147,148a12.18,12.18,0,0,0,2.46-1.92l2.12,1.23a12.23,12.23,0,0,1-2.47,1.92,7.55,7.55,0,0,1-.9.45"/><path class="cls-33" d="M151.6,147.26,149.48,146q.47-.45.9-1l2.12,1.23c-.29.33-.59.66-.9,1"/><path class="cls-32" d="M152.5,146.3l-2.12-1.23c.24-.27.47-.55.69-.83l2.11,1.22c-.22.29-.45.57-.68.84"/><path class="cls-31" d="M153.18,145.46l-2.11-1.22c.2-.26.39-.52.58-.79l2.11,1.23c-.18.27-.38.53-.58.78"/><path class="cls-30" d="M153.76,144.68l-2.11-1.23.51-.76,2.11,1.23c-.16.26-.33.51-.51.76"/><path class="cls-29" d="M154.27,143.92l-2.11-1.23c.15-.25.31-.49.45-.74l2.12,1.22c-.15.26-.3.5-.46.75"/><path class="cls-28" d="M154.73,143.17,152.61,142c.14-.25.28-.49.41-.74l2.12,1.23c-.13.25-.27.49-.41.73"/><path class="cls-27" d="M155.14,142.44,153,141.21c.13-.24.26-.49.38-.74l2.11,1.23c-.12.25-.24.5-.37.74"/><path class="cls-26" d="M155.51,141.7l-2.11-1.23c.11-.24.23-.49.33-.73l2.12,1.23c-.11.24-.22.49-.34.73"/><path class="cls-25" d="M155.85,141l-2.12-1.23c.11-.25.21-.5.31-.75l2.11,1.23c-.09.25-.2.5-.3.75"/><path class="cls-35" d="M156.15,140.22,154,139c.1-.26.19-.51.27-.77l2.12,1.23c-.09.26-.18.51-.28.77"/><path class="cls-36" d="M156.43,139.45l-2.12-1.23c.09-.27.18-.54.25-.8l2.12,1.22c-.08.27-.16.54-.25.81"/><path class="cls-37" d="M156.68,138.64l-2.12-1.22c.08-.3.15-.59.22-.88l2.11,1.23q-.09.43-.21.87"/><path class="cls-23" d="M156.89,137.77l-2.11-1.23c.06-.31.12-.62.16-.93l2.11,1.23c0,.31-.09.62-.16.93"/></g></g></g><g class="cls-2"><g class="cls-42"><g class="cls-2"><polyline class="cls-25" points="164.24 107.38 162.12 106.15 162.13 106.16 164.25 107.38 164.24 107.38"/><path class="cls-26" d="M164.25,107.38l-2.12-1.22.1,0,2.12,1.23-.1-.05"/><path class="cls-27" d="M164.35,107.43l-2.12-1.23.11,0,2.11,1.23-.1,0"/><path class="cls-28" d="M164.45,107.47l-2.11-1.23.11,0,2.12,1.23-.12,0"/><path class="cls-29" d="M164.57,107.5l-2.12-1.23h.13l2.11,1.23h-.12"/><path class="cls-30" d="M164.69,107.51l-2.11-1.23a.33.33,0,0,0,.14,0l2.11,1.23h-.14"/><path class="cls-31" d="M164.83,107.51l-2.11-1.23h.16L165,107.5h-.16"/><path class="cls-32" d="M165,107.5l-2.11-1.23.2,0,2.11,1.23-.2,0"/><path class="cls-33" d="M165.19,107.46l-2.11-1.23.28-.1,2.11,1.23-.28.1"/><path class="cls-34" d="M165.47,107.36l-2.11-1.23.35-.17a4.84,4.84,0,0,0,.94-.74l2.12,1.22a4.46,4.46,0,0,1-1,.74l-.35.18"/><path class="cls-33" d="M166.77,106.44l-2.12-1.22c.12-.12.24-.24.35-.37l2.12,1.22c-.12.13-.23.26-.35.37"/><path class="cls-32" d="M167.12,106.07,165,104.85l.27-.33,2.11,1.23c-.09.11-.17.22-.26.32"/><path class="cls-31" d="M167.38,105.75l-2.11-1.23.22-.3,2.11,1.23-.22.3"/><path class="cls-30" d="M167.6,105.45l-2.11-1.23.2-.29,2.11,1.22c-.06.1-.13.2-.2.3"/><path class="cls-29" d="M167.8,105.15l-2.11-1.22c.06-.1.12-.19.17-.29l2.12,1.23-.18.28"/><path class="cls-28" d="M168,104.87l-2.12-1.23.16-.29,2.12,1.23-.16.29"/><path class="cls-27" d="M168.14,104.58,166,103.35l.15-.28,2.11,1.23c-.05.09-.09.19-.14.28"/><path class="cls-26" d="M168.28,104.3l-2.11-1.23c0-.1.09-.19.13-.29l2.11,1.23c0,.1-.08.19-.13.29"/><path class="cls-25" d="M168.41,104l-2.11-1.23a2.49,2.49,0,0,0,.11-.29l2.12,1.23-.12.29"/><path class="cls-35" d="M168.53,103.72l-2.12-1.23c0-.1.08-.19.11-.29l2.12,1.22-.11.3"/><path class="cls-36" d="M168.64,103.42l-2.12-1.22c0-.11.07-.21.1-.32l2.11,1.23-.09.31"/><path class="cls-37" d="M168.73,103.11l-2.11-1.23c0-.11.06-.22.08-.33l2.11,1.22a3.38,3.38,0,0,1-.08.34"/><path class="cls-23" d="M168.81,102.77l-2.11-1.22a2.25,2.25,0,0,0,.06-.36v0l2.11,1.23v0c0,.12,0,.24-.07.35"/><path class="cls-21" d="M168.88,102.38l-2.11-1.23c.12-1-.11-1.64-.57-1.91l2.11,1.23c.47.27.7.94.57,1.91"/></g></g></g><g class="cls-2"><g class="cls-43"><g class="cls-2"><path class="cls-34" d="M159.52,116.7l-2.12-1.23a4.61,4.61,0,0,0,.95-.74l2.11,1.23a4.84,4.84,0,0,1-.94.74"/><path class="cls-33" d="M160.46,116l-2.11-1.23.35-.37,2.11,1.23c-.11.13-.23.25-.35.37"/><path class="cls-32" d="M160.81,115.59l-2.11-1.23c.09-.11.18-.21.26-.32l2.12,1.22-.27.33"/><path class="cls-31" d="M161.08,115.26,159,114l.23-.31L161.3,115l-.22.3"/><path class="cls-30" d="M161.3,115l-2.11-1.23.19-.29,2.12,1.23-.2.29"/><path class="cls-29" d="M161.5,114.67l-2.12-1.23.18-.29,2.11,1.23c0,.1-.11.19-.17.29"/><path class="cls-28" d="M161.67,114.38l-2.11-1.23.16-.29,2.11,1.23-.16.29"/><path class="cls-27" d="M161.83,114.09l-2.11-1.23c.05-.09.1-.19.14-.28l2.12,1.23-.15.28"/><path class="cls-26" d="M162,113.81l-2.12-1.23c0-.1.09-.19.13-.29l2.12,1.23c0,.1-.09.19-.13.29"/><path class="cls-25" d="M162.11,113.52,160,112.29l.12-.29,2.12,1.23-.12.29"/><path class="cls-35" d="M162.23,113.23,160.11,112c0-.09.07-.19.11-.29l2.11,1.23c0,.1-.07.19-.1.29"/><path class="cls-36" d="M162.33,112.94l-2.11-1.23.09-.31,2.12,1.22c0,.11-.06.21-.1.32"/><path class="cls-37" d="M162.43,112.62l-2.12-1.22.09-.34,2.11,1.23c0,.11,0,.22-.08.33"/><path class="cls-23" d="M162.51,112.29l-2.11-1.23.06-.36v0l2.12,1.23v0a2.25,2.25,0,0,1-.06.36"/><path class="cls-21" d="M162.58,111.9l-2.12-1.23c.13-1-.1-1.64-.57-1.91L162,110c.47.28.7,1,.58,1.92"/></g></g></g><g class="cls-2"><g class="cls-44"><g class="cls-2"><polyline class="cls-25" points="157.93 116.89 155.81 115.66 155.83 115.67 157.94 116.9 157.93 116.89"/><path class="cls-26" d="M157.94,116.9l-2.11-1.23.1,0L158,117l-.1,0"/><path class="cls-27" d="M158,117l-2.11-1.23.1,0,2.12,1.22-.11,0"/><path class="cls-28" d="M158.15,117,156,115.76l.12,0,2.11,1.23a.35.35,0,0,1-.11,0"/><path class="cls-29" d="M158.26,117l-2.11-1.23.12,0,2.12,1.23-.13,0"/><path class="cls-30" d="M158.39,117l-2.12-1.23h.14l2.12,1.23h-.14"/><path class="cls-31" d="M158.53,117l-2.12-1.23.16,0,2.12,1.23-.16,0"/><path class="cls-32" d="M158.69,117l-2.12-1.23.2,0,2.11,1.23-.19,0"/><path class="cls-33" d="M158.88,117l-2.11-1.23.28-.1,2.12,1.23-.29.1"/><path class="cls-34" d="M159.17,116.87l-2.12-1.23a3.7,3.7,0,0,0,.35-.17l2.12,1.23a3.7,3.7,0,0,1-.35.17"/></g></g></g><g class="cls-2"><g class="cls-45"><g class="cls-2"><path class="cls-21" d="M142.4,152.24,140.29,151c-1.72-1-2.68-3.26-2.56-6.5l2.11,1.22c-.11,3.25.85,5.51,2.56,6.51"/></g></g></g><g class="cls-2"><g class="cls-46"><g class="cls-2"><path class="cls-23" d="M134.83,149.67l-2.12-1.23s0-.07,0-.11l2.11,1.23s0,.08,0,.11"/><path class="cls-21" d="M134.84,149.56l-2.11-1.23c.32-2.51-.27-4.24-1.49-4.94l2.12,1.22c1.21.71,1.81,2.44,1.48,4.95"/></g></g></g><g class="cls-2"><g class="cls-47"><g class="cls-2"><path class="cls-25" d="M122.8,162.52l-2.11-1.23h0l2.11,1.23h0"/><path class="cls-26" d="M122.83,162.53l-2.11-1.23.26.13,2.11,1.23-.26-.13"/><path class="cls-27" d="M123.09,162.66,121,161.43l.27.1,2.12,1.23-.28-.1"/><path class="cls-28" d="M123.37,162.76l-2.12-1.23.3.07,2.12,1.22a2.27,2.27,0,0,1-.3-.06"/><path class="cls-29" d="M123.67,162.82l-2.12-1.22c.11,0,.21,0,.32,0l2.12,1.23a1.65,1.65,0,0,1-.32,0"/><path class="cls-30" d="M124,162.86l-2.12-1.23h.36l2.12,1.23H124"/><path class="cls-31" d="M124.35,162.87l-2.12-1.23a3,3,0,0,0,.42,0l2.12,1.23a3.19,3.19,0,0,1-.42.05"/><path class="cls-32" d="M124.77,162.82l-2.12-1.23a5.27,5.27,0,0,0,.52-.1l2.11,1.22a3.34,3.34,0,0,1-.51.11"/><path class="cls-33" d="M125.28,162.71l-2.11-1.22a6.34,6.34,0,0,0,.72-.26l2.12,1.23a4.86,4.86,0,0,1-.73.25"/><path class="cls-34" d="M126,162.46l-2.12-1.23a7,7,0,0,0,.91-.45,12.18,12.18,0,0,0,2.46-1.92l2.12,1.23a12.31,12.31,0,0,1-2.47,1.92,7.55,7.55,0,0,1-.9.45"/><path class="cls-33" d="M129.38,160.09l-2.12-1.23q.46-.45.9-1l2.12,1.23q-.45.51-.9,1"/><path class="cls-32" d="M130.28,159.13l-2.12-1.23c.23-.27.46-.54.68-.83L131,158.3c-.22.28-.45.56-.68.83"/><path class="cls-31" d="M131,158.3l-2.12-1.23c.2-.26.4-.52.58-.79l2.12,1.23c-.19.27-.38.53-.58.79"/><path class="cls-30" d="M131.54,157.51l-2.12-1.23c.18-.25.35-.5.51-.76l2.12,1.23-.51.76"/><path class="cls-29" d="M132.05,156.75l-2.12-1.23c.16-.24.31-.49.46-.74L132.5,156l-.45.74"/><path class="cls-28" d="M132.5,156l-2.11-1.23.41-.73,2.11,1.22c-.13.25-.27.5-.41.74"/><path class="cls-27" d="M132.91,155.27l-2.11-1.22c.13-.25.25-.49.37-.74l2.11,1.23c-.12.25-.24.49-.37.73"/><path class="cls-26" d="M133.28,154.54l-2.11-1.23c.12-.24.23-.49.34-.74l2.11,1.23c-.11.25-.22.5-.34.74"/><path class="cls-25" d="M133.62,153.8l-2.11-1.23c.1-.24.21-.49.3-.74l2.12,1.23c-.1.24-.2.49-.31.74"/><path class="cls-35" d="M133.93,153.06l-2.12-1.23c.1-.26.19-.52.28-.77l2.11,1.23c-.08.25-.17.51-.27.77"/><path class="cls-36" d="M134.2,152.29l-2.11-1.23c.09-.27.17-.54.25-.81l2.11,1.23c-.07.27-.16.54-.25.81"/><path class="cls-37" d="M134.45,151.48l-2.11-1.23c.08-.29.15-.59.21-.88l2.12,1.23c-.07.29-.14.58-.22.88"/><path class="cls-23" d="M134.67,150.6l-2.12-1.23c.07-.31.12-.62.16-.93l2.12,1.23c0,.31-.1.62-.16.93"/></g></g></g><g class="cls-2"><g class="cls-48"><g class="cls-2"><path class="cls-29" d="M154.37,99.64l-2.11-1.23c0-.06.15-.25.34-.55l2.12,1.23-.35.55"/><path class="cls-30" d="M154.72,99.09l-2.12-1.23c.35-.54.94-1.44,1.69-2.52l2.12,1.23c-.76,1.08-1.34,2-1.69,2.52"/><path class="cls-31" d="M156.41,96.57l-2.12-1.23c.58-.82,1.26-1.75,2-2.71l2.11,1.23c-.75,1-1.43,1.89-2,2.71"/><path class="cls-32" d="M158.41,93.86l-2.11-1.23c.62-.81,1.29-1.64,2-2.45l2.12,1.22c-.71.82-1.39,1.65-2,2.46"/><path class="cls-33" d="M160.42,91.4l-2.12-1.22c.67-.78,1.38-1.54,2.1-2.25l2.12,1.22c-.73.72-1.43,1.48-2.1,2.25"/><path class="cls-34" d="M162.52,89.15l-2.12-1.22a20.76,20.76,0,0,1,4-3.2,8.16,8.16,0,0,1,1.11-.55l2.11,1.23a8.68,8.68,0,0,0-1.1.55,20.39,20.39,0,0,0-4,3.19"/><path class="cls-33" d="M167.63,85.41l-2.11-1.23a5.3,5.3,0,0,1,.82-.28l2.11,1.23a5.68,5.68,0,0,0-.82.28"/><path class="cls-32" d="M168.45,85.13l-2.11-1.23a3.75,3.75,0,0,1,.58-.13L169,85a4.35,4.35,0,0,0-.58.13"/><path class="cls-31" d="M169,85l-2.11-1.23.38,0h.11L169.53,85h-.11L169,85"/><path class="cls-30" d="M169.53,85l-2.12-1.23H168L170.07,85h-.54"/><path class="cls-29" d="M170.07,85,168,83.73c.19,0,.39,0,.59.07L170.66,85a5.93,5.93,0,0,0-.59-.07"/><path class="cls-28" d="M170.66,85l-2.11-1.23q.33.06.66.15l2.11,1.23q-.33-.09-.66-.15"/><path class="cls-27" d="M171.32,85.18,169.21,84q.38.12.75.27l2.11,1.23a7.51,7.51,0,0,0-.75-.27"/><path class="cls-26" d="M172.07,85.45,170,84.22c.28.12.57.26.86.42l2.11,1.23a7.58,7.58,0,0,0-.86-.42"/><path class="cls-25" d="M172.93,85.87l-2.11-1.23.1.06L173,85.93l-.11-.06"/></g></g></g><g class="cls-2"><g class="cls-49"><g class="cls-2"><path class="cls-21" d="M119.73,165.33l-2.12-1.23a5.15,5.15,0,0,1-2.28-3.41l2.11,1.23a5.2,5.2,0,0,0,2.29,3.41"/></g></g></g><polygon class="cls-50" points="147.46 103.63 145.35 102.4 152.26 98.41 154.37 99.64 147.46 103.63"/><polygon class="cls-50" points="145.43 104.81 143.31 103.58 145.35 102.4 147.46 103.63 145.43 104.81"/><polygon class="cls-50" points="144.75 105.2 142.63 103.97 143.31 103.58 145.43 104.81 144.75 105.2"/><g class="cls-2"><g class="cls-51"><g class="cls-2"><path class="cls-34" d="M125.29,137.62l-2.11-1.23a2.47,2.47,0,0,0,.49-.39l2.12,1.23a2.51,2.51,0,0,1-.5.39"/><path class="cls-33" d="M125.79,137.23,123.67,136l.18-.19L126,137l-.18.19"/><path class="cls-32" d="M126,137l-2.12-1.23a1.15,1.15,0,0,0,.14-.17l2.11,1.23L126,137"/><path class="cls-31" d="M126.1,136.87,124,135.64l.12-.16,2.11,1.23-.12.16"/><path class="cls-30" d="M126.22,136.71l-2.11-1.23.1-.15,2.11,1.23-.1.15"/><path class="cls-29" d="M126.32,136.56l-2.11-1.23.09-.15,2.12,1.23-.1.15"/><path class="cls-28" d="M126.42,136.41l-2.12-1.23a1.09,1.09,0,0,0,.08-.15l2.12,1.23a1.09,1.09,0,0,0-.08.15"/><path class="cls-27" d="M126.5,136.26,124.38,135a1.09,1.09,0,0,0,.08-.15l2.11,1.23-.07.15"/><path class="cls-26" d="M126.57,136.11l-2.11-1.23.07-.15,2.11,1.23a1,1,0,0,1-.07.15"/><path class="cls-25" d="M126.64,136l-2.11-1.23.06-.15,2.11,1.23-.06.15"/><path class="cls-35" d="M126.7,135.81l-2.11-1.23a.88.88,0,0,0,0-.15l2.12,1.23-.06.15"/><path class="cls-36" d="M126.76,135.66l-2.12-1.23a1,1,0,0,0,0-.16l2.12,1.23c0,.05,0,.1,0,.16"/><path class="cls-37" d="M126.81,135.5l-2.12-1.23c0-.06,0-.12,0-.18l2.11,1.23c0,.06,0,.12,0,.18"/><path class="cls-23" d="M126.85,135.32l-2.11-1.23,0-.18,2.11,1.23a1.13,1.13,0,0,1,0,.18"/></g></g></g><g class="cls-2"><g class="cls-52"><g class="cls-2"><path class="cls-34" d="M120.49,145.1l-2.11-1.23a2.47,2.47,0,0,0,.49-.39l2.11,1.23a2.21,2.21,0,0,1-.49.39"/><path class="cls-33" d="M121,144.71l-2.11-1.23.18-.19,2.12,1.23-.19.19"/><path class="cls-32" d="M121.17,144.52l-2.12-1.23s.09-.11.14-.17l2.11,1.23-.13.17"/><path class="cls-31" d="M121.3,144.35l-2.11-1.23.12-.16,2.11,1.23-.12.16"/><path class="cls-30" d="M121.42,144.19,119.31,143l.1-.15,2.11,1.23-.1.15"/><path class="cls-29" d="M121.52,144l-2.11-1.23.09-.15,2.11,1.23a1.19,1.19,0,0,1-.09.15"/><path class="cls-28" d="M121.61,143.89l-2.11-1.23a1.09,1.09,0,0,0,.08-.15l2.12,1.23-.09.15"/><path class="cls-27" d="M121.7,143.74l-2.12-1.23.08-.15,2.11,1.23-.07.15"/><path class="cls-26" d="M121.77,143.59l-2.11-1.23.07-.14,2.11,1.23-.07.14"/><path class="cls-25" d="M121.84,143.45l-2.11-1.23.06-.15,2.11,1.22-.06.16"/><path class="cls-35" d="M121.9,143.29l-2.11-1.22a1.42,1.42,0,0,0,0-.16l2.12,1.23-.06.15"/><path class="cls-36" d="M122,143.14l-2.12-1.23a1,1,0,0,0,0-.16L122,143c0,.05,0,.11-.05.16"/><path class="cls-37" d="M122,143l-2.12-1.23c0-.06,0-.12,0-.18l2.11,1.23c0,.06,0,.12,0,.18"/><path class="cls-23" d="M122.05,142.8l-2.11-1.23,0-.18,2.11,1.23,0,.18"/></g></g></g><polygon class="cls-50" points="122.55 139.2 120.44 137.97 123.18 136.39 125.29 137.62 122.55 139.2"/><polygon class="cls-53" points="122.08 142.62 119.97 141.39 120.44 137.97 122.55 139.2 122.08 142.62"/><polygon class="cls-53" points="126.88 135.14 124.77 133.91 125.55 128.26 127.67 129.49 126.88 135.14"/><g class="cls-2"><g class="cls-54"><g class="cls-2"><path class="cls-23" d="M127.67,129.48l-2.12-1.22v0l2.12,1.23h0"/><path class="cls-21" d="M127.67,129.47l-2.12-1.23c.07-.5,0-.85-.3-1l2.12,1.23a1,1,0,0,1,.3,1"/></g></g></g><polygon class="cls-50" points="115.97 147.71 113.86 146.48 118.38 143.87 120.49 145.1 115.97 147.71"/><g class="cls-2"><g class="cls-55"><g class="cls-2"><polyline class="cls-25" points="115.15 147.81 113.03 146.58 113.04 146.58 115.15 147.81 115.15 147.81"/><path class="cls-26" d="M115.15,147.81,113,146.58l0,0,2.12,1.23-.06,0"/><path class="cls-27" d="M115.21,147.84l-2.12-1.23.06,0,2.11,1.23-.05,0"/><path class="cls-28" d="M115.26,147.86l-2.11-1.23h.06l2.11,1.23h-.06"/><path class="cls-29" d="M115.32,147.87l-2.11-1.23h.06l2.12,1.23h-.07"/><path class="cls-30" d="M115.39,147.88l-2.12-1.23h.07l2.12,1.23h-.07"/><path class="cls-31" d="M115.46,147.88l-2.12-1.23h.09l2.11,1.23h-.08"/><path class="cls-32" d="M115.54,147.87l-2.11-1.23.1,0,2.11,1.23-.1,0"/><path class="cls-33" d="M115.64,147.85l-2.11-1.23.14-.05,2.12,1.23-.15,0"/><path class="cls-34" d="M115.79,147.8l-2.12-1.23.19-.09,2.11,1.23-.18.09"/></g></g></g><polygon class="cls-50" points="135.81 110.36 133.69 109.13 142.63 103.97 144.75 105.2 135.81 110.36"/><polygon class="cls-53" points="123.81 130.16 121.69 128.93 122.17 125.5 124.28 126.73 123.81 130.16"/><g class="cls-2"><g class="cls-56"><g class="cls-2"><path class="cls-23" d="M124.28,126.73l-2.11-1.23h0l2.11,1.23h0"/><path class="cls-21" d="M124.28,126.72l-2.11-1.23c.07-.51-.06-.86-.3-1l2.11,1.23c.25.14.37.49.3,1"/></g></g></g><polygon class="cls-50" points="112.59 144.95 110.47 143.72 113.21 142.14 115.33 143.37 112.59 144.95"/><g class="cls-2"><g class="cls-57"><g class="cls-2"><polyline class="cls-25" points="111.76 145.05 109.65 143.82 109.65 143.83 111.77 145.06 111.76 145.05"/><path class="cls-26" d="M111.77,145.06l-2.12-1.23.06,0,2.11,1.23,0,0"/><path class="cls-27" d="M111.82,145.08l-2.11-1.23.05,0,2.12,1.23-.06,0"/><path class="cls-28" d="M111.88,145.1l-2.12-1.23.06,0,2.12,1.22h-.06"/><path class="cls-29" d="M111.94,145.11l-2.12-1.22h.07l2.11,1.23h-.06"/><path class="cls-30" d="M112,145.12l-2.11-1.23a.08.08,0,0,0,.07,0l2.11,1.23H112"/><path class="cls-31" d="M112.07,145.12,110,143.89H110l2.12,1.22h-.09"/><path class="cls-32" d="M112.16,145.11,110,143.89l.1,0,2.12,1.23-.1,0"/><path class="cls-33" d="M112.26,145.09l-2.12-1.23.15-.05L112.4,145l-.14.05"/><path class="cls-34" d="M112.4,145l-2.11-1.23.18-.09,2.12,1.23-.19.09"/></g></g></g><g class="cls-2"><g class="cls-58"><g class="cls-2"><path class="cls-34" d="M125.66,109.55l-2.11-1.23a10.57,10.57,0,0,1,1.26-.63l2.12,1.23a10.67,10.67,0,0,0-1.27.63"/><path class="cls-33" d="M126.93,108.92l-2.12-1.23a10.27,10.27,0,0,1,1.18-.4l2.11,1.23a8.53,8.53,0,0,0-1.17.4"/><path class="cls-32" d="M128.1,108.52,126,107.29a8.81,8.81,0,0,1,.94-.2l2.12,1.23a8.48,8.48,0,0,0-1,.2"/><path class="cls-31" d="M129.05,108.32l-2.12-1.23c.3,0,.6-.07.88-.09l2.12,1.23a6.73,6.73,0,0,0-.88.09"/><path class="cls-30" d="M129.93,108.23,127.81,107a8.16,8.16,0,0,1,.86,0l2.11,1.23a8,8,0,0,0-.85,0"/><path class="cls-29" d="M130.78,108.24,128.67,107c.29,0,.58.06.85.1l2.12,1.23a7.79,7.79,0,0,0-.86-.1"/><path class="cls-28" d="M131.64,108.34l-2.12-1.23c.31.06.61.13.89.21l2.11,1.23c-.28-.08-.57-.15-.88-.21"/><path class="cls-27" d="M132.52,108.55l-2.11-1.23a7.3,7.3,0,0,1,.9.32l2.12,1.23a7.47,7.47,0,0,0-.91-.32"/><path class="cls-26" d="M133.43,108.87l-2.12-1.23a10.12,10.12,0,0,1,.93.45l2.11,1.23a8.79,8.79,0,0,0-.92-.45"/><path class="cls-25" d="M134.35,109.32l-2.11-1.23.09.06,2.12,1.23-.1-.06"/></g></g></g><path class="cls-59" d="M176.27,88.73c4,4.78,7.26,13.87,6.33,26.06-1.43,18.81-2,19.5-4.29,23.27a13.89,13.89,0,0,1-4.37,4.91,5.55,5.55,0,0,1-5.87-.21,30.18,30.18,0,0,1-7.45-5.73c-2.55,6-7,11.75-11.52,14.38-5.6,3.23-9.49.67-9.26-5.68l-.84.49c-1.64,7.17-7,15.05-12.57,18.28-4.57,2.64-8,1.42-9-2.58-.2.15-4.21,7-10.68,16.24-3.1,4.43-5.31,6.66-6.94,7.6s-2.85.54-3.66-.27c-1.54-1.56-2-1.64,2-21.92,2.58-13.15,9.07-27.84,15.27-38.54,3.37-5.81,6.66-10.45,9.18-13a14.31,14.31,0,0,1,3.09-2.46,8.41,8.41,0,0,1,10.14.81l8.95-5.16.68-.39,2-1.18,6.91-4c.32-.52,6.41-10.37,12.16-13.68a6.72,6.72,0,0,1,2.89-1C171.6,84.81,174.06,86.13,176.27,88.73Zm-60.3,59,4.52-2.61a3.78,3.78,0,0,0,1.59-2.48l.47-3.42,2.74-1.58a3.78,3.78,0,0,0,1.59-2.48l.79-5.66c.12-.93-.38-1.34-1.12-.91l-2.74,1.59.47-3.43c.13-.93-.37-1.34-1.12-.91l-4.52,2.61a3.78,3.78,0,0,0-1.59,2.47l-.47,3.43-2.74,1.58a3.78,3.78,0,0,0-1.59,2.48l-.79,5.65c-.12.93.38,1.34,1.13.91l2.74-1.58-.48,3.43c-.13.93.37,1.34,1.12.91m41.08-10.87c.65-4.66-1.85-6.7-5.58-4.55s-7.27,7.68-7.92,12.35,1.85,6.69,5.58,4.54,7.28-7.67,7.92-12.34m-22.22,12.83c.64-4.66-1.85-6.7-5.58-4.55s-7.27,7.68-7.92,12.35,1.86,6.69,5.58,4.54,7.27-7.67,7.92-12.34M173.2,105.8c.25-1.8-.71-2.59-2.15-1.76A7.3,7.3,0,0,0,168,108.8c-.25,1.8.72,2.59,2.16,1.76a7.33,7.33,0,0,0,3-4.76m-6.11,9.52c.25-1.8-.72-2.58-2.15-1.75a7.28,7.28,0,0,0-3.06,4.76c-.25,1.8.72,2.58,2.15,1.75a7.28,7.28,0,0,0,3.06-4.76m-3.42-9.89c-.25,1.8.71,2.58,2.15,1.75a7.26,7.26,0,0,0,3.06-4.76c.25-1.8-.72-2.58-2.16-1.75a7.28,7.28,0,0,0-3.05,4.76m-4.15,11.27a7.33,7.33,0,0,0,3-4.77c.25-1.79-.71-2.58-2.15-1.75a7.3,7.3,0,0,0-3.06,4.76c-.25,1.8.71,2.59,2.16,1.76"/><g class="cls-2"><g class="cls-60"><g class="cls-2"><path class="cls-21" d="M96.84,186l-2.12-1.23a3.07,3.07,0,0,1-.67-.53c-.94-.95-1.49-1.35-.87-6.11l2.11,1.23c-.61,4.76-.07,5.16.87,6.11a3.46,3.46,0,0,0,.68.53"/><path class="cls-23" d="M95.29,179.38l-2.11-1.23c.4-3.05,1.27-7.89,2.83-15.81.08-.43.17-.85.26-1.28l2.12,1.22c-.1.43-.18.86-.27,1.29-1.55,7.92-2.43,12.76-2.83,15.81"/><path class="cls-37" d="M98.39,162.28l-2.12-1.22c.38-1.76.82-3.54,1.31-5.32L99.7,157c-.5,1.79-.94,3.57-1.31,5.32"/><path class="cls-36" d="M99.7,157l-2.12-1.22q.75-2.67,1.64-5.35l2.11,1.23c-.59,1.79-1.14,3.57-1.63,5.34"/><path class="cls-35" d="M101.33,151.62l-2.11-1.23c.61-1.83,1.27-3.67,2-5.49l2.12,1.23c-.7,1.82-1.36,3.66-2,5.49"/><path class="cls-25" d="M103.31,146.13l-2.12-1.23c.73-1.89,1.5-3.77,2.3-5.61l2.12,1.23c-.8,1.84-1.57,3.72-2.3,5.61"/><path class="cls-26" d="M105.61,140.52l-2.12-1.23c.83-1.91,1.69-3.79,2.57-5.62l2.12,1.23c-.88,1.83-1.74,3.71-2.57,5.62"/><path class="cls-27" d="M108.18,134.9l-2.12-1.23q1.35-2.78,2.73-5.37l2.11,1.23q-1.38,2.59-2.72,5.37"/><path class="cls-28" d="M110.9,129.53l-2.11-1.23c.82-1.56,1.66-3.06,2.49-4.49.07-.12.13-.24.2-.35l2.11,1.23-.2.34q-1.24,2.16-2.49,4.5"/><path class="cls-29" d="M113.59,124.69l-2.11-1.23q1.24-2.13,2.46-4l2.11,1.23c-.8,1.27-1.63,2.62-2.46,4"/><path class="cls-30" d="M116.05,120.65l-2.11-1.23c.72-1.13,1.44-2.19,2.13-3.18l2.11,1.23q-1,1.48-2.13,3.18"/><path class="cls-31" d="M118.18,117.47l-2.11-1.23c.61-.87,1.21-1.68,1.78-2.43L120,115c-.58.75-1.18,1.56-1.79,2.43"/><path class="cls-32" d="M120,115l-2.12-1.23q.78-1,1.5-1.83l2.12,1.23c-.48.55-1,1.16-1.5,1.83"/><path class="cls-33" d="M121.47,113.21,119.35,112q.57-.66,1.11-1.2l.21-.22,2.11,1.23-.21.22c-.35.36-.72.76-1.1,1.2"/><path class="cls-34" d="M122.78,111.79l-2.11-1.23a14.66,14.66,0,0,1,2.88-2.24l2.11,1.23a14.66,14.66,0,0,0-2.88,2.24"/></g></g></g></g></svg>